<?xml version="1.0" encoding="UTF-8"?>
<svg id="Capa_1" data-name="Capa 1" xmlns="http://www.w3.org/2000/svg" viewBox="0 0 136.02 136.01">
  <defs>
    <style>
      .cls-1, .cls-2 {
        fill: #16222d;
      }

      .cls-3 {
        stroke: #1d1d1b;
        stroke-miterlimit: 10;
        stroke-width: .25px;
      }

      .cls-3, .cls-4 {
        fill: #ec9e19;
      }

      .cls-5 {
        fill: #fff;
      }

      .cls-2 {
        font-family: Garcia, Garcia;
        font-size: 19.8px;
      }
    </style>
  </defs>
  <g>
    <path class="cls-5" d="M67.14,132.22c36.38,0,65.88-29.43,65.88-65.72S103.53.78,67.14.78,1.27,30.2,1.27,66.5s29.49,65.72,65.88,65.72Z"/>
    <path class="cls-3" d="M69.79,39.86l2.83-5.08c1.53-2.75,5.73-1.63,5.68,1.52l-.1,5.81c-.04,2.37,2.55,3.86,4.59,2.64l4.99-2.99c2.71-1.62,5.78,1.45,4.16,4.15l-3,4.98c-1.22,2.03.27,4.61,2.65,4.58l5.82-.1c3.15-.06,4.27,4.14,1.52,5.66l-5.09,2.82c-2.08,1.15-2.08,4.13,0,5.29l5.09,2.82c2.76,1.53,1.63,5.72-1.52,5.66l-5.82-.1c-2.38-.04-3.87,2.54-2.65,4.58l3,4.98c1.62,2.7-1.45,5.76-4.16,4.15l-4.99-2.99c-2.04-1.22-4.62.27-4.59,2.64l.1,5.81c.06,3.15-4.15,4.26-5.68,1.52l-2.83-5.08c-1.15-2.07-4.14-2.07-5.3,0l-2.83,5.08c-1.53,2.75-5.73,1.63-5.68-1.52l.1-5.81c.04-2.37-2.55-3.86-4.59-2.64l-4.99,2.99c-2.71,1.62-5.78-1.45-4.16-4.15l3-4.98c1.22-2.03-.27-4.61-2.65-4.58l-5.82.1c-3.15.06-4.28-4.14-1.52-5.66l5.09-2.82c2.08-1.15,2.08-4.13,0-5.29l-5.09-2.82c-2.76-1.53-1.63-5.72,1.52-5.66l5.82.1c2.38.04,3.87-2.54,2.65-4.58l-3-4.98c-1.62-2.7,1.45-5.76,4.16-4.15l4.99,2.99c2.04,1.22,4.62-.27,4.59-2.64l-.1-5.81c-.06-3.15,4.15-4.27,5.68-1.52l2.83,5.08c1.15,2.07,4.14,2.07,5.3,0Z"/>
    <path class="cls-1" d="M91.66,70.45c-.45-.71-1.37-.86-2.08-.46-3.14,1.91-7.53-.32-7.87-3.97-.09-.84-.7-1.44-1.56-1.44-3.49,1.11.13,6.32,2.04,7.6-4.34,9.8-19.26,11.84-26.04,2.88,5.32-5.37.33-10.6-.56-5.35-.08.53-.21,1.11-.43,1.58-.33.77-.89,1.52-1.51,2.02-.62.5-1.37.84-2.14,1.02-1.15.26-2.33.12-3.26-.27-.75-.33-1.64-.15-2.04.62-.81,3.54,5.47,3.03,7.53,2.06,7.93,10.75,25.38,8.94,31.18-3.31,2.08.51,7.85.26,6.74-2.98Z"/>
    <path class="cls-1" d="M62.67,68.23c-.42.08-.89.11-1.37.02-.27-.04-.53-.13-.8-.25-.06-.02-.12-.05-.17-.08-.24-.13-.48-.28-.72-.48-.58-.48-1.15-1.21-1.65-2.26s-.96-2.43-1.3-4.21c-.7-3.57-.44-5.77.26-7.11.03-.07.07-.13.1-.2.11-.17.22-.34.34-.48l.02-.03c.05-.06.1-.11.15-.17.56-.59,1.23-.88,1.89-1.01,2.88-.57,5.19,2.17,6.22,7.3,1.02,5.11-.07,8.36-2.99,8.94h.01Z"/>
    <path class="cls-1" d="M58.29,50.43c.22-.04.51-.07.63.17.15.23-.02.56-.29.59-.47.04-.62.09-.88.17-1.02.35-1.71,1.02-2.11,1.81-.2.47-.92.17-.72-.31.63-1.31,1.95-2.24,3.38-2.44h0Z"/>
    <path class="cls-4" d="M66.67,61.48l-2.69,2.03,2.6,2.04.09-4.07Z"/>
    <path class="cls-1" d="M75.01,67.52c-.42.08-.89.11-1.37.02-.27-.04-.53-.13-.8-.25-.06-.02-.12-.05-.17-.08-.24-.13-.48-.27-.72-.48-.58-.48-1.15-1.21-1.65-2.26-.5-1.05-.96-2.43-1.3-4.21-.7-3.57-.44-5.77.26-7.11.03-.07.07-.13.1-.2.11-.17.22-.34.34-.48l.02-.03c.05-.06.1-.11.15-.17.56-.59,1.23-.88,1.89-1.01,2.88-.57,5.19,2.17,6.22,7.3,1.02,5.11-.07,8.37-2.99,8.94h.01Z"/>
    <path class="cls-1" d="M75.39,49.85c.18.13.41.31.32.56-.06.26-.41.38-.62.21-.36-.3-.5-.38-.75-.5-.97-.46-1.94-.48-2.78-.21-.48.19-.77-.54-.29-.73,1.37-.48,2.96-.21,4.12.66h0Z"/>
    <path class="cls-4" d="M79.01,60.76l-2.69,2.03,2.6,2.04.09-4.07Z"/>
    <path class="cls-1" d="M96.92,7.21c-3.09.76-5.53,3.2-6.3,6.29-.07.28-.43.28-.5,0-.77-3.09-3.2-5.53-6.3-6.29-.28-.07-.28-.43,0-.5,3.09-.76,5.53-3.19,6.3-6.28.07-.27.43-.27.5,0,.77,3.09,3.2,5.52,6.3,6.28.28.07.28.43,0,.5Z"/>
    <path class="cls-1" d="M14.24,100.97c-1.55.38-2.77,1.6-3.15,3.15-.04.13-.22.13-.25,0-.39-1.55-1.6-2.77-3.15-3.15-.13-.04-.13-.22,0-.25,1.55-.38,2.77-1.59,3.15-3.14.04-.13.22-.13.25,0,.39,1.55,1.6,2.76,3.15,3.14.13.04.13.22,0,.25Z"/>
    <path class="cls-1" d="M134.16,86.06c-1.55.38-2.77,1.6-3.15,3.15-.04.13-.22.13-.25,0-.39-1.55-1.6-2.77-3.15-3.15-.14-.04-.14-.22,0-.25,1.55-.38,2.77-1.59,3.15-3.14.04-.13.22-.13.25,0,.38,1.55,1.6,2.76,3.15,3.14.14.04.14.22,0,.25Z"/>
  </g>
  <text class="cls-2" transform="translate(25.13 61.82) rotate(-75.09)"><tspan x="0" y="0">P</tspan></text>
  <text class="cls-2" transform="translate(27.35 52.98) rotate(-62.91)"><tspan x="0" y="0">R</tspan></text>
  <text class="cls-2" transform="translate(31.43 44.78) rotate(-50.89)"><tspan x="0" y="0">O</tspan></text>
  <text class="cls-2" transform="translate(36.98 37.78) rotate(-39.07)"><tspan x="0" y="0">G</tspan></text>
  <text class="cls-2" transform="translate(43.86 32.03) rotate(-27.14)"><tspan x="0" y="0">R</tspan></text>
  <text class="cls-2" transform="translate(51.91 27.74) rotate(-14.74)"><tspan x="0" y="0">A</tspan></text>
  <text class="cls-2" transform="translate(60.84 25.01) rotate(-.32)"><tspan x="0" y="0">M</tspan></text>
  <text class="cls-2" transform="translate(73.19 24.96) rotate(13.85)"><tspan x="0" y="0">A</tspan></text>
  <text class="cls-2" transform="translate(82.76 27.5) rotate(23.25)"><tspan x="0" y="0"> </tspan></text>
  <text class="cls-2" transform="translate(86.76 28.92) rotate(32.49)"><tspan x="0" y="0">D</tspan></text>
  <text class="cls-2" transform="translate(94.61 33.9) rotate(43.7)"><tspan x="0" y="0">E</tspan></text>
  <text class="cls-2" transform="translate(100.31 39.47) rotate(51.82)"><tspan x="0" y="0"> </tspan></text>
  <text class="cls-2" transform="translate(103.14 42.65) rotate(60.89)"><tspan x="0" y="0">C</tspan></text>
  <text class="cls-2" transform="translate(107.67 50.56) rotate(72.85)"><tspan x="0" y="0">O</tspan></text>
  <text class="cls-2" transform="translate(110.61 58.76) rotate(86.89)"><tspan x="0" y="0">M</tspan></text>
  <text class="cls-2" transform="translate(111.22 71.13) rotate(100.71)"><tspan x="0" y="0">U</tspan></text>
  <text class="cls-2" transform="translate(109.69 79.91) rotate(112.7)"><tspan x="0" y="0">N</tspan></text>
  <text class="cls-2" transform="translate(105.89 88.63) rotate(122.1)"><tspan x="0" y="0">I</tspan></text>
  <text class="cls-2" transform="translate(103.72 92.59) rotate(131.44)"><tspan x="0" y="0">D</tspan></text>
  <text class="cls-2" transform="translate(97.74 99.57) rotate(143.79)"><tspan x="0" y="0">A</tspan></text>
  <text class="cls-2" transform="translate(90.11 105.29) rotate(156.12)"><tspan x="0" y="0">D</tspan></text>
  <text class="cls-2" transform="translate(81.31 109.02) rotate(165.31)"><tspan x="0" y="0"> </tspan></text>
  <text class="cls-2" transform="translate(77.33 110.38) rotate(174.74)"><tspan x="0" y="0">A</tspan></text>
  <text class="cls-2" transform="translate(67.76 111.28) rotate(-173.55)"><tspan x="0" y="0">C</tspan></text>
  <text class="cls-2" transform="translate(58.78 110.38) rotate(-160.7)"><tspan x="0" y="0">A</tspan></text>
  <text class="cls-2" transform="translate(49.74 107.33) rotate(-148.21)"><tspan x="0" y="0">D</tspan></text>
  <text class="cls-2" transform="translate(41.83 102.44) rotate(-136.99)"><tspan x="0" y="0">E</tspan></text>
  <text class="cls-2" transform="translate(36.14 97.73) rotate(-123.95)"><tspan x="0" y="0">M</tspan></text>
  <text class="cls-2" transform="translate(29.3 87) rotate(-112.69)"><tspan x="0" y="0">I</tspan></text>
  <text class="cls-2" transform="translate(27.32 82.94) rotate(-103.39)"><tspan x="0" y="0">C</tspan></text>
  <text class="cls-2" transform="translate(25.07 74.15) rotate(-90.97)"><tspan x="0" y="0">A</tspan></text>
</svg>